G04 DesignSpark PCB Gerber Version 10.0 Build 5299*
G04 #@! TF.Part,Single*
G04 #@! TF.FileFunction,Legend,Top*
G04 #@! TF.FilePolarity,Positive*
%FSLAX35Y35*%
%MOIN*%
%ADD74C,0.00300*%
%ADD19C,0.00500*%
%ADD21C,0.00600*%
%ADD20C,0.00700*%
%ADD71C,0.00800*%
%ADD28C,0.00900*%
%ADD70C,0.01000*%
%ADD18C,0.01200*%
G04 #@! TD.AperFunction*
X0Y0D02*
D02*
D18*
X600Y600D02*
X210600D01*
Y280600D01*
X600D01*
Y600D01*
X140600Y15600D02*
X155600D01*
Y35600D01*
X160600D01*
Y15600D01*
X165600D01*
Y35600D01*
X170600D01*
Y15600D01*
X175600D01*
Y35600D01*
X180600D01*
Y15600D01*
X185600D01*
Y35600D01*
X195600Y148100D02*
X135600D01*
Y13100D01*
X195600D01*
Y148100D01*
D02*
D19*
X20600Y145600D02*
X58100D01*
Y185600D01*
X20600D01*
Y145600D01*
X23100Y15444D02*
Y13569D01*
X24663D01*
X25600Y14037D02*
X25756Y13725D01*
X26069Y13569D01*
X26381D01*
X26694Y13725D01*
X26850Y14037D01*
Y14350D01*
X26694Y14663D01*
X26381Y14819D01*
X26069D01*
X25756Y14663D01*
X25600Y14350D01*
Y14037D01*
X29350Y14350D02*
X29194Y14663D01*
X28881Y14819D01*
X28569D01*
X28256Y14663D01*
X28100Y14350D01*
Y14194D01*
X28256Y13881D01*
X28569Y13725D01*
X28881D01*
X29194Y13881D01*
X29350Y14194D01*
Y14819D02*
Y13569D01*
X29194Y13256D01*
X28881Y13100D01*
X28413D01*
X28100Y13256D01*
X31225Y13569D02*
Y14819D01*
Y15287D02*
X34350Y14663D02*
X34037Y14819D01*
X33569D01*
X33256Y14663D01*
X33100Y14350D01*
Y14037D01*
X33256Y13725D01*
X33569Y13569D01*
X34037D01*
X34350Y13725D01*
X38100Y15444D02*
Y13569D01*
X39663D01*
X41850Y13725D02*
X41694Y13569D01*
X41381D01*
X41069D01*
X40756Y13725D01*
X40600Y14037D01*
Y14506D01*
X40756Y14663D01*
X41069Y14819D01*
X41381D01*
X41694Y14663D01*
X41850Y14506D01*
Y14350D01*
X41694Y14194D01*
X41381Y14037D01*
X41069D01*
X40756Y14194D01*
X40600Y14350D01*
X43100Y14819D02*
X43725Y13569D01*
X44350Y14819D01*
X46850Y13725D02*
X46694Y13569D01*
X46381D01*
X46069D01*
X45756Y13725D01*
X45600Y14037D01*
Y14506D01*
X45756Y14663D01*
X46069Y14819D01*
X46381D01*
X46694Y14663D01*
X46850Y14506D01*
Y14350D01*
X46694Y14194D01*
X46381Y14037D01*
X46069D01*
X45756Y14194D01*
X45600Y14350D01*
X48881Y13569D02*
X48725D01*
Y15444D01*
X54663Y13881D02*
X54506Y13725D01*
X54194Y13569D01*
X53725D01*
X53413Y13725D01*
X53256Y13881D01*
X53100Y14194D01*
Y14819D01*
X53256Y15131D01*
X53413Y15287D01*
X53725Y15444D01*
X54194D01*
X54506Y15287D01*
X54663Y15131D01*
X55600Y14037D02*
X55756Y13725D01*
X56069Y13569D01*
X56381D01*
X56694Y13725D01*
X56850Y14037D01*
Y14350D01*
X56694Y14663D01*
X56381Y14819D01*
X56069D01*
X55756Y14663D01*
X55600Y14350D01*
Y14037D01*
X58100Y13569D02*
Y14819D01*
Y14350D02*
X58256Y14663D01*
X58569Y14819D01*
X58881D01*
X59194Y14663D01*
X59350Y14350D01*
Y13569D01*
X60600Y14819D02*
X61225Y13569D01*
X61850Y14819D01*
X64350Y13725D02*
X64194Y13569D01*
X63881D01*
X63569D01*
X63256Y13725D01*
X63100Y14037D01*
Y14506D01*
X63256Y14663D01*
X63569Y14819D01*
X63881D01*
X64194Y14663D01*
X64350Y14506D01*
Y14350D01*
X64194Y14194D01*
X63881Y14037D01*
X63569D01*
X63256Y14194D01*
X63100Y14350D01*
X65600Y13569D02*
Y14819D01*
Y14350D02*
X65756Y14663D01*
X66069Y14819D01*
X66381D01*
X66694Y14663D01*
X68360Y14819D02*
X69090D01*
X68725Y15131D02*
Y13725D01*
X68881Y13569D01*
X69037D01*
X69194Y13725D01*
X71850D02*
X71694Y13569D01*
X71381D01*
X71069D01*
X70756Y13725D01*
X70600Y14037D01*
Y14506D01*
X70756Y14663D01*
X71069Y14819D01*
X71381D01*
X71694Y14663D01*
X71850Y14506D01*
Y14350D01*
X71694Y14194D01*
X71381Y14037D01*
X71069D01*
X70756Y14194D01*
X70600Y14350D01*
X73100Y13569D02*
Y14819D01*
Y14350D02*
X73256Y14663D01*
X73569Y14819D01*
X73881D01*
X74194Y14663D01*
X78100Y13569D02*
Y15444D01*
X78881Y14506D01*
X79663Y15444D01*
Y13569D01*
X80600Y14037D02*
X80756Y13725D01*
X81069Y13569D01*
X81381D01*
X81694Y13725D01*
X81850Y14037D01*
Y14350D01*
X81694Y14663D01*
X81381Y14819D01*
X81069D01*
X80756Y14663D01*
X80600Y14350D01*
Y14037D01*
X84350Y14350D02*
X84194Y14663D01*
X83881Y14819D01*
X83569D01*
X83256Y14663D01*
X83100Y14350D01*
Y14037D01*
X83256Y13725D01*
X83569Y13569D01*
X83881D01*
X84194Y13725D01*
X84350Y14037D01*
Y13569D02*
Y15444D01*
X85600Y14819D02*
Y14037D01*
X85756Y13725D01*
X86069Y13569D01*
X86381D01*
X86694Y13725D01*
X86850Y14037D01*
Y14819D02*
Y13569D01*
X88881D02*
X88725D01*
Y15444D01*
X91850Y13725D02*
X91694Y13569D01*
X91381D01*
X91069D01*
X90756Y13725D01*
X90600Y14037D01*
Y14506D01*
X90756Y14663D01*
X91069Y14819D01*
X91381D01*
X91694Y14663D01*
X91850Y14506D01*
Y14350D01*
X91694Y14194D01*
X91381Y14037D01*
X91069D01*
X90756Y14194D01*
X90600Y14350D01*
X23100Y18100D02*
X93100D01*
Y80600D01*
X23100D01*
Y18100D01*
X32319Y30600D02*
X34944D01*
Y32787D01*
X32319Y34100D02*
X34944Y35194D01*
X32319Y36287D01*
X34944Y38694D02*
X32319D01*
X34069Y37600D01*
Y39350D01*
X34944Y57600D02*
X32319D01*
X33631D02*
Y59787D01*
X34944D02*
X32319D01*
Y61100D02*
X34944Y62194D01*
X32319Y63287D01*
X34944Y65694D02*
X32319D01*
X34069Y64600D01*
Y66350D01*
X42319Y30600D02*
X44944D01*
Y32787D01*
X42319Y34100D02*
X44944Y35194D01*
X42319Y36287D01*
X44725Y37819D02*
X44944Y38256D01*
Y38694D01*
X44725Y39131D01*
X44287Y39350D01*
X43850Y39131D01*
X43631Y38694D01*
Y38256D01*
Y38694D02*
X43413Y39131D01*
X42975Y39350D01*
X42537Y39131D01*
X42319Y38694D01*
Y38256D01*
X42537Y37819D01*
X44944Y57600D02*
X42319D01*
X43631D02*
Y59787D01*
X44944D02*
X42319D01*
Y61100D02*
X44944Y62194D01*
X42319Y63287D01*
X44725Y64819D02*
X44944Y65256D01*
Y65694D01*
X44725Y66131D01*
X44287Y66350D01*
X43850Y66131D01*
X43631Y65694D01*
Y65256D01*
Y65694D02*
X43413Y66131D01*
X42975Y66350D01*
X42537Y66131D01*
X42319Y65694D01*
Y65256D01*
X42537Y64819D01*
X45600Y95600D02*
X80600D01*
Y105600D01*
X45600D01*
Y95600D01*
X53850Y32131D02*
Y32787D01*
X54069D01*
X54506Y32569D01*
X54725Y32350D01*
X54944Y31913D01*
Y31475D01*
X54725Y31037D01*
X54506Y30819D01*
X54069Y30600D01*
X53194D01*
X52756Y30819D01*
X52537Y31037D01*
X52319Y31475D01*
Y31913D01*
X52537Y32350D01*
X52756Y32569D01*
X53194Y32787D01*
X54944Y34100D02*
X52319D01*
X54944Y36287D01*
X52319D01*
X54944Y37600D02*
X52319D01*
Y38913D01*
X52537Y39350D01*
X52756Y39569D01*
X53194Y39787D01*
X54069D01*
X54506Y39569D01*
X54725Y39350D01*
X54944Y38913D01*
Y37600D01*
X53850Y59131D02*
Y59787D01*
X54069D01*
X54506Y59569D01*
X54725Y59350D01*
X54944Y58913D01*
Y58475D01*
X54725Y58037D01*
X54506Y57819D01*
X54069Y57600D01*
X53194D01*
X52756Y57819D01*
X52537Y58037D01*
X52319Y58475D01*
Y58913D01*
X52537Y59350D01*
X52756Y59569D01*
X53194Y59787D01*
X54944Y61100D02*
X52319D01*
X54944Y63287D01*
X52319D01*
X54944Y64600D02*
X52319D01*
Y65913D01*
X52537Y66350D01*
X52756Y66569D01*
X53194Y66787D01*
X54069D01*
X54506Y66569D01*
X54725Y66350D01*
X54944Y65913D01*
Y64600D01*
X53850Y109631D02*
Y110287D01*
X54069D01*
X54506Y110069D01*
X54725Y109850D01*
X54944Y109413D01*
Y108975D01*
X54725Y108537D01*
X54506Y108319D01*
X54069Y108100D01*
X53194D01*
X52756Y108319D01*
X52537Y108537D01*
X52319Y108975D01*
Y109413D01*
X52537Y109850D01*
X52756Y110069D01*
X53194Y110287D01*
X54944Y111600D02*
X52319D01*
X54944Y113787D01*
X52319D01*
X54944Y115100D02*
X52319D01*
Y116413D01*
X52537Y116850D01*
X52756Y117069D01*
X53194Y117287D01*
X54069D01*
X54506Y117069D01*
X54725Y116850D01*
X54944Y116413D01*
Y115100D01*
X64725Y30819D02*
X64944Y31256D01*
Y31694D01*
X64725Y32131D01*
X64287Y32350D01*
X63850Y32131D01*
X63631Y31694D01*
Y31256D01*
Y31694D02*
X63413Y32131D01*
X62975Y32350D01*
X62537Y32131D01*
X62319Y31694D01*
Y31256D01*
X62537Y30819D01*
X64944Y34319D02*
X64725Y34537D01*
X64506Y34319D01*
X64725Y34100D01*
X64944Y34319D01*
X64725Y37819D02*
X64944Y38256D01*
Y38694D01*
X64725Y39131D01*
X64287Y39350D01*
X63850Y39131D01*
X63631Y38694D01*
Y38256D01*
Y38694D02*
X63413Y39131D01*
X62975Y39350D01*
X62537Y39131D01*
X62319Y38694D01*
Y38256D01*
X62537Y37819D01*
X62319Y41100D02*
X64944Y42194D01*
X62319Y43287D01*
X64725Y61100D02*
X64944Y61537D01*
Y62194D01*
X64725Y62631D01*
X64287Y62850D01*
X64069D01*
X63631Y62631D01*
X63413Y62194D01*
Y61100D01*
X62319D01*
Y62850D01*
Y64600D02*
X64944Y65694D01*
X62319Y66787D01*
X70600Y145600D02*
X108100D01*
Y185600D01*
X70600D01*
Y145600D01*
X72319Y43100D02*
X74944D01*
Y45287D01*
X72319Y46600D02*
X74944Y47694D01*
X72319Y48787D01*
X74944Y51850D02*
Y50100D01*
X73413Y51631D01*
X72975Y51850D01*
X72537Y51631D01*
X72319Y51194D01*
Y50537D01*
X72537Y50100D01*
X74944Y57600D02*
X72319D01*
X73631D02*
Y59787D01*
X74944D02*
X72319D01*
Y61100D02*
X74944Y62194D01*
X72319Y63287D01*
X74944Y66350D02*
Y64600D01*
X73413Y66131D01*
X72975Y66350D01*
X72537Y66131D01*
X72319Y65694D01*
Y65037D01*
X72537Y64600D01*
X75600Y91913D02*
X75819Y91475D01*
X76256Y91256D01*
X77131D01*
X77569Y91475D01*
X77787Y91913D01*
X77569Y92350D01*
X77131Y92569D01*
X76256D01*
X75819Y92787D01*
X75600Y93225D01*
X75819Y93663D01*
X76256Y93881D01*
X77131D01*
X77569Y93663D01*
X77787Y93225D01*
X79100Y91256D02*
Y93881D01*
X81287D01*
X80850Y92569D02*
X79100D01*
Y91256D02*
X81287D01*
X82600D02*
Y93881D01*
X84131D01*
X84569Y93663D01*
X84787Y93225D01*
X84569Y92787D01*
X84131Y92569D01*
X82600D01*
X84131D02*
X84787Y91256D01*
X86100Y93881D02*
X87194Y91256D01*
X88287Y93881D01*
X89600Y92131D02*
Y93006D01*
X89819Y93444D01*
X90037Y93663D01*
X90475Y93881D01*
X90913D01*
X91350Y93663D01*
X91569Y93444D01*
X91787Y93006D01*
Y92131D01*
X91569Y91694D01*
X91350Y91475D01*
X90913Y91256D01*
X90475D01*
X90037Y91475D01*
X89819Y91694D01*
X89600Y92131D01*
X74944Y107600D02*
X72319D01*
Y109131D01*
X72537Y109569D01*
X72975Y109787D01*
X73413Y109569D01*
X73631Y109131D01*
Y107600D01*
X72319Y111100D02*
X74944Y111319D01*
X73631Y112194D01*
X74944Y113069D01*
X72319Y113287D01*
X74944Y114600D02*
X72319D01*
X73631Y115694D01*
X72319Y116787D01*
X74944D01*
X79819Y30600D02*
X82444D01*
Y32787D01*
X79819Y34100D02*
X82444Y35194D01*
X79819Y36287D01*
X82444Y38037D02*
Y38913D01*
Y38475D02*
X79819D01*
X80256Y38037D01*
X83100Y228100D02*
X118100D01*
Y243100D01*
X83100D01*
Y228100D01*
X84944Y57600D02*
X82319D01*
X83631D02*
Y59787D01*
X84944D02*
X82319D01*
Y61100D02*
X84944Y62194D01*
X82319Y63287D01*
X84944Y65037D02*
Y65913D01*
Y65475D02*
X82319D01*
X82756Y65037D01*
X137100Y171787D02*
Y171225D01*
X136913D01*
X136537Y171413D01*
X136350Y171600D01*
X136163Y171975D01*
Y172350D01*
X136350Y172725D01*
X136537Y172913D01*
X136913Y173100D01*
X137663D01*
X138037Y172913D01*
X138225Y172725D01*
X138413Y172350D01*
Y171975D01*
X138225Y171600D01*
X138037Y171413D01*
X137663Y171225D01*
X136163Y170100D02*
X138413D01*
X136163Y168225D01*
X138413D01*
X136163Y167100D02*
X138413D01*
Y165975D01*
X138225Y165600D01*
X138037Y165413D01*
X137663Y165225D01*
X136913D01*
X136537Y165413D01*
X136350Y165600D01*
X136163Y165975D01*
Y167100D01*
X143850Y125413D02*
X143663Y125037D01*
Y124663D01*
X143850Y124287D01*
X144225Y124100D01*
X144600Y124287D01*
X144787Y124663D01*
Y125037D01*
Y124663D02*
X144975Y124287D01*
X145350Y124100D01*
X145725Y124287D01*
X145913Y124663D01*
Y125037D01*
X145725Y125413D01*
X145913Y122600D02*
X143663Y121663D01*
X145913Y120725D01*
X143850Y119413D02*
X143663Y119037D01*
Y118663D01*
X143850Y118287D01*
X144225Y118100D01*
X144600Y118287D01*
X144787Y118663D01*
Y119037D01*
Y118663D02*
X144975Y118287D01*
X145350Y118100D01*
X145725Y118287D01*
X145913Y118663D01*
Y119037D01*
X145725Y119413D01*
X144413Y116600D02*
Y115100D01*
X144787Y113037D02*
Y112663D01*
X144975Y112287D01*
X145350Y112100D01*
X145725Y112287D01*
X145913Y112663D01*
Y113037D01*
X145725Y113413D01*
X145350Y113600D01*
X144975Y113413D01*
X144787Y113037D01*
X144600Y113413D01*
X144225Y113600D01*
X143850Y113413D01*
X143663Y113037D01*
Y112663D01*
X143850Y112287D01*
X144225Y112100D01*
X144600Y112287D01*
X144787Y112663D01*
X146256Y92006D02*
X148881D01*
X147131Y93100D01*
Y91350D01*
Y89600D02*
Y87850D01*
X146256Y85444D02*
Y84569D01*
Y85006D02*
X148881D01*
Y85444D02*
Y84569D01*
X147131Y82600D02*
X148006D01*
X148444Y82381D01*
X148663Y82163D01*
X148881Y81725D01*
Y81287D01*
X148663Y80850D01*
X148444Y80631D01*
X148006Y80413D01*
X147131D01*
X146694Y80631D01*
X146475Y80850D01*
X146256Y81287D01*
Y81725D01*
X146475Y82163D01*
X146694Y82381D01*
X147131Y82600D01*
X146475Y78881D02*
X146256Y78444D01*
Y78006D01*
X146475Y77569D01*
X146913Y77350D01*
X147350Y77569D01*
X147569Y78006D01*
Y78444D01*
Y78006D02*
X147787Y77569D01*
X148225Y77350D01*
X148663Y77569D01*
X148881Y78006D01*
Y78444D01*
X148663Y78881D01*
X146256Y72100D02*
X148881D01*
Y70569D01*
X148663Y70131D01*
X148225Y69913D01*
X147787Y70131D01*
X147569Y70569D01*
Y72100D01*
Y70569D02*
X146256Y69913D01*
Y68600D02*
X148881Y66413D01*
Y68600D02*
X146256Y66413D01*
X146537Y171225D02*
X146350Y171413D01*
X146163Y171787D01*
Y172350D01*
X146350Y172725D01*
X146537Y172913D01*
X146913Y173100D01*
X147663D01*
X148037Y172913D01*
X148225Y172725D01*
X148413Y172350D01*
Y171787D01*
X148225Y171413D01*
X148037Y171225D01*
X146163Y169163D02*
X148413D01*
Y170100D02*
Y168225D01*
X146725Y167100D02*
X146350Y166913D01*
X146163Y166537D01*
Y165787D01*
X146350Y165413D01*
X146725Y165225D01*
X147100Y165413D01*
X147287Y165787D01*
Y166537D01*
X147475Y166913D01*
X147850Y167100D01*
X148225Y166913D01*
X148413Y166537D01*
Y165787D01*
X148225Y165413D01*
X147850Y165225D01*
X156475Y92881D02*
X156256Y92444D01*
Y92006D01*
X156475Y91569D01*
X156913Y91350D01*
X157350Y91569D01*
X157569Y92006D01*
Y92444D01*
Y92006D02*
X157787Y91569D01*
X158225Y91350D01*
X158663Y91569D01*
X158881Y92006D01*
Y92444D01*
X158663Y92881D01*
X157131Y89600D02*
Y87850D01*
X156256Y85444D02*
Y84569D01*
Y85006D02*
X158881D01*
Y85444D02*
Y84569D01*
X157131Y82600D02*
X158006D01*
X158444Y82381D01*
X158663Y82163D01*
X158881Y81725D01*
Y81287D01*
X158663Y80850D01*
X158444Y80631D01*
X158006Y80413D01*
X157131D01*
X156694Y80631D01*
X156475Y80850D01*
X156256Y81287D01*
Y81725D01*
X156475Y82163D01*
X156694Y82381D01*
X157131Y82600D01*
X156475Y78881D02*
X156256Y78444D01*
Y78006D01*
X156475Y77569D01*
X156913Y77350D01*
X158225D01*
X158663Y77569D01*
X158881Y78006D01*
Y78444D01*
X158663Y78881D01*
X158225Y79100D01*
X156913D01*
X156475Y78881D01*
X158663Y77569D01*
X156256Y72100D02*
X158881D01*
Y69913D01*
X157569Y70350D02*
Y72100D01*
X158881Y68600D02*
X156256D01*
Y66413D01*
X156913Y65100D02*
X156475Y64881D01*
X156256Y64444D01*
Y63569D01*
X156475Y63131D01*
X156913Y62913D01*
X157350Y63131D01*
X157569Y63569D01*
Y64444D01*
X157787Y64881D01*
X158225Y65100D01*
X158663Y64881D01*
X158881Y64444D01*
Y63569D01*
X158663Y63131D01*
X158225Y62913D01*
X156256Y61600D02*
X158881D01*
X157569D02*
Y59413D01*
X156256D02*
X158881D01*
X156163Y128600D02*
X158413Y126725D01*
X156163Y125600D02*
X158413D01*
Y124287D01*
X158225Y123913D01*
X157850Y123725D01*
X157475Y123913D01*
X157287Y124287D01*
Y125600D01*
Y124287D02*
X156163Y123725D01*
X156725Y122600D02*
X156350Y122413D01*
X156163Y122037D01*
Y121287D01*
X156350Y120913D01*
X156725Y120725D01*
X157100Y120913D01*
X157287Y121287D01*
Y122037D01*
X157475Y122413D01*
X157850Y122600D01*
X158225Y122413D01*
X158413Y122037D01*
Y121287D01*
X158225Y120913D01*
X157850Y120725D01*
X156163Y118663D02*
X158413D01*
Y119600D02*
Y117725D01*
X156913Y116600D02*
Y115100D01*
X156163Y113600D02*
X158413Y112100D01*
Y113600D01*
Y173100D02*
X156163Y172163D01*
X158413Y171225D01*
X156537Y168225D02*
X156350Y168413D01*
X156163Y168787D01*
Y169350D01*
X156350Y169725D01*
X156537Y169913D01*
X156913Y170100D01*
X157663D01*
X158037Y169913D01*
X158225Y169725D01*
X158413Y169350D01*
Y168787D01*
X158225Y168413D01*
X158037Y168225D01*
X156537Y165225D02*
X156350Y165413D01*
X156163Y165787D01*
Y166350D01*
X156350Y166725D01*
X156537Y166913D01*
X156913Y167100D01*
X157663D01*
X158037Y166913D01*
X158225Y166725D01*
X158413Y166350D01*
Y165787D01*
X158225Y165413D01*
X158037Y165225D01*
X166256Y91350D02*
Y93100D01*
X167787Y91569D01*
X168225Y91350D01*
X168663Y91569D01*
X168881Y92006D01*
Y92663D01*
X168663Y93100D01*
X167131Y89600D02*
Y87850D01*
X166256Y85444D02*
Y84569D01*
Y85006D02*
X168881D01*
Y85444D02*
Y84569D01*
X167131Y82600D02*
X168006D01*
X168444Y82381D01*
X168663Y82163D01*
X168881Y81725D01*
Y81287D01*
X168663Y80850D01*
X168444Y80631D01*
X168006Y80413D01*
X167131D01*
X166694Y80631D01*
X166475Y80850D01*
X166256Y81287D01*
Y81725D01*
X166475Y82163D01*
X166694Y82381D01*
X167131Y82600D01*
X166256Y77350D02*
Y79100D01*
X167787Y77569D01*
X168225Y77350D01*
X168663Y77569D01*
X168881Y78006D01*
Y78663D01*
X168663Y79100D01*
X166256Y131600D02*
X168881D01*
Y129413D01*
X167569Y129850D02*
Y131600D01*
X166256D02*
Y129413D01*
Y128100D02*
X168881D01*
X166256Y125913D01*
X168881D01*
X167569Y123069D02*
X167350Y122631D01*
X166913Y122413D01*
X166475Y122631D01*
X166256Y123069D01*
Y124600D01*
X168881D01*
Y123069D01*
X168663Y122631D01*
X168225Y122413D01*
X167787Y122631D01*
X167569Y123069D01*
Y124600D01*
X168881Y121100D02*
X166256D01*
Y118913D01*
X167131Y117600D02*
Y115850D01*
X166913Y114100D02*
X167350Y113881D01*
X167569Y113444D01*
Y113006D01*
X167350Y112569D01*
X166913Y112350D01*
X166475Y112569D01*
X166256Y113006D01*
Y113444D01*
X166475Y113881D01*
X166913Y114100D01*
X167569D01*
X168225Y113881D01*
X168663Y113444D01*
X168881Y113006D01*
X166163Y172163D02*
X168413D01*
Y173100D02*
Y171225D01*
X166163Y170100D02*
X168413Y168225D01*
Y170100D02*
X166163Y168225D01*
Y167100D02*
X168413D01*
Y165975D01*
X168225Y165600D01*
X168037Y165413D01*
X167663Y165225D01*
X166913D01*
X166537Y165413D01*
X166350Y165600D01*
X166163Y165975D01*
Y167100D01*
X176256Y137506D02*
X178881D01*
Y138600D02*
Y136413D01*
X176256Y135100D02*
X178881Y132913D01*
Y135100D02*
X176256Y132913D01*
Y127444D02*
Y126569D01*
Y127006D02*
X178881D01*
Y127444D02*
Y126569D01*
X177131Y124600D02*
X178006D01*
X178444Y124381D01*
X178663Y124163D01*
X178881Y123725D01*
Y123287D01*
X178663Y122850D01*
X178444Y122631D01*
X178006Y122413D01*
X177131D01*
X176694Y122631D01*
X176475Y122850D01*
X176256Y123287D01*
Y123725D01*
X176475Y124163D01*
X176694Y124381D01*
X177131Y124600D01*
X176256Y120663D02*
Y119787D01*
Y120225D02*
X178881D01*
X178444Y120663D01*
X177131Y117600D02*
Y115850D01*
X176475Y114100D02*
X176256Y113663D01*
Y113006D01*
X176475Y112569D01*
X176913Y112350D01*
X177131D01*
X177569Y112569D01*
X177787Y113006D01*
Y114100D01*
X178881D01*
Y112350D01*
X176163Y173100D02*
X178413D01*
Y171787D01*
X178225Y171413D01*
X177850Y171225D01*
X177475Y171413D01*
X177287Y171787D01*
Y173100D01*
Y171787D02*
X176163Y171225D01*
Y170100D02*
X178413Y168225D01*
Y170100D02*
X176163Y168225D01*
Y167100D02*
X178413D01*
Y165975D01*
X178225Y165600D01*
X178037Y165413D01*
X177663Y165225D01*
X176913D01*
X176537Y165413D01*
X176350Y165600D01*
X176163Y165975D01*
Y167100D01*
X178756Y92663D02*
Y91787D01*
Y92225D02*
X181381D01*
X180944Y92663D01*
X179631Y89600D02*
Y87850D01*
X179850Y84569D02*
Y83913D01*
X179631D01*
X179194Y84131D01*
X178975Y84350D01*
X178756Y84787D01*
Y85225D01*
X178975Y85663D01*
X179194Y85881D01*
X179631Y86100D01*
X180506D01*
X180944Y85881D01*
X181163Y85663D01*
X181381Y85225D01*
Y84787D01*
X181163Y84350D01*
X180944Y84131D01*
X180506Y83913D01*
X178756Y82600D02*
X181381D01*
X178756Y80413D01*
X181381D01*
X178756Y79100D02*
X181381D01*
Y77787D01*
X181163Y77350D01*
X180944Y77131D01*
X180506Y76913D01*
X179631D01*
X179194Y77131D01*
X178975Y77350D01*
X178756Y77787D01*
Y79100D01*
X186163Y173100D02*
X188413D01*
Y171975D01*
X188225Y171600D01*
X188037Y171413D01*
X187663Y171225D01*
X186913D01*
X186537Y171413D01*
X186350Y171600D01*
X186163Y171975D01*
Y173100D01*
Y169163D02*
X188413D01*
Y170100D02*
Y168225D01*
X186163Y167100D02*
X188413D01*
Y165787D01*
X188225Y165413D01*
X187850Y165225D01*
X187475Y165413D01*
X187287Y165787D01*
Y167100D01*
Y165787D02*
X186163Y165225D01*
D02*
D70*
X141537Y45600D02*
X145287D01*
Y42475D01*
X143413Y43100D02*
Y45600D01*
X141537D02*
Y42475D01*
X142475Y40600D02*
X141850Y40287D01*
X141537Y39663D01*
Y38413D01*
X141850Y37787D01*
X142475Y37475D01*
X143100Y37787D01*
X143413Y38413D01*
Y39663D01*
X143725Y40287D01*
X144350Y40600D01*
X144975Y40287D01*
X145287Y39663D01*
Y38413D01*
X144975Y37787D01*
X144350Y37475D01*
X141537Y35600D02*
X145287D01*
Y33413D01*
X144975Y32787D01*
X144350Y32475D01*
X143725Y32787D01*
X143413Y33413D01*
Y35600D01*
X142787Y30600D02*
Y28100D01*
X141850Y25287D02*
X141537Y24663D01*
Y24037D01*
X141850Y23413D01*
X142475Y23100D01*
X144350D01*
X144975Y23413D01*
X145287Y24037D01*
Y24663D01*
X144975Y25287D01*
X144350Y25600D01*
X142475D01*
X141850Y25287D01*
X144975Y23413D01*
X141537Y19975D02*
Y18725D01*
Y19350D02*
X145287D01*
X144663Y19975D01*
D02*
D71*
X183100Y184350D02*
Y186600D01*
X182850Y187100D01*
X182350Y187350D01*
X181350D01*
X180850Y187100D01*
X180600Y186600D01*
Y184350D01*
X179100Y186600D02*
X178850Y187100D01*
X178350Y187350D01*
X177350D01*
X176850Y187100D01*
X176600Y186600D01*
X176850Y186100D01*
X177350Y185850D01*
X178350D01*
X178850Y185600D01*
X179100Y185100D01*
X178850Y184600D01*
X178350Y184350D01*
X177350D01*
X176850Y184600D01*
X176600Y185100D01*
X173350Y185850D02*
X172850Y186100D01*
X172600Y186600D01*
X172850Y187100D01*
X173350Y187350D01*
X175100D01*
Y184350D01*
X173350D01*
X172850Y184600D01*
X172600Y185100D01*
X172850Y185600D01*
X173350Y185850D01*
X175100D01*
X171100Y186350D02*
X169100D01*
X167100Y186600D02*
X166850Y187100D01*
X166350Y187350D01*
X165350D01*
X164850Y187100D01*
X164600Y186600D01*
X164850Y186100D01*
X165350Y185850D01*
X166350D01*
X166850Y185600D01*
X167100Y185100D01*
X166850Y184600D01*
X166350Y184350D01*
X165350D01*
X164850Y184600D01*
X164600Y185100D01*
X163100Y187350D02*
Y184350D01*
X160600D01*
X161100Y185850D02*
X163100D01*
Y187350D02*
X160600D01*
X159100D02*
Y184350D01*
X157350D01*
X156850Y184600D01*
X156600Y185100D01*
X156850Y185600D01*
X157350Y185850D01*
X159100D01*
X157350D02*
X156600Y187350D01*
X154350D02*
X153350D01*
X153850D02*
Y184350D01*
X154350D02*
X153350D01*
X151100Y187350D02*
X149850Y184350D01*
X148600Y187350D01*
X150600Y186100D02*
X149100D01*
X147100Y184350D02*
Y187350D01*
X144600D01*
D02*
D20*
X77350Y267600D02*
X78100D01*
Y267350D01*
X77850Y266850D01*
X77600Y266600D01*
X77100Y266350D01*
X76600D01*
X76100Y266600D01*
X75850Y266850D01*
X75600Y267350D01*
Y268350D01*
X75850Y268850D01*
X76100Y269100D01*
X76600Y269350D01*
X77100D01*
X77600Y269100D01*
X77850Y268850D01*
X78100Y268350D01*
X79600Y266350D02*
Y269350D01*
X82100Y266350D01*
Y269350D01*
X83600Y266350D02*
Y269350D01*
X85100D01*
X85600Y269100D01*
X85850Y268850D01*
X86100Y268350D01*
Y267350D01*
X85850Y266850D01*
X85600Y266600D01*
X85100Y266350D01*
X83600D01*
X75350Y207600D02*
X76100D01*
Y207350D01*
X75850Y206850D01*
X75600Y206600D01*
X75100Y206350D01*
X74600D01*
X74100Y206600D01*
X73850Y206850D01*
X73600Y207350D01*
Y208350D01*
X73850Y208850D01*
X74100Y209100D01*
X74600Y209350D01*
X75100D01*
X75600Y209100D01*
X75850Y208850D01*
X76100Y208350D01*
X77600Y206350D02*
Y209350D01*
X80100Y206350D01*
Y209350D01*
X81600Y206350D02*
Y209350D01*
X83100D01*
X83600Y209100D01*
X83850Y208850D01*
X84100Y208350D01*
Y207350D01*
X83850Y206850D01*
X83600Y206600D01*
X83100Y206350D01*
X81600D01*
X86100Y228850D02*
X87100D01*
X86600D02*
Y231850D01*
X86100Y231350D01*
X97600Y228850D02*
X95600D01*
X97350Y230600D01*
X97600Y231100D01*
X97350Y231600D01*
X96850Y231850D01*
X96100D01*
X95600Y231600D01*
X105850Y206600D02*
X106350Y206350D01*
X106850D01*
X107350Y206600D01*
X107600Y207100D01*
X107350Y207600D01*
X106850Y207850D01*
X106350D01*
X106850D02*
X107350Y208100D01*
X107600Y208600D01*
X107350Y209100D01*
X106850Y209350D01*
X106350D01*
X105850Y209100D01*
X109600Y209350D02*
X110850Y206350D01*
X112100Y209350D01*
X113850Y206600D02*
X114350Y206350D01*
X114850D01*
X115350Y206600D01*
X115600Y207100D01*
X115350Y207600D01*
X114850Y207850D01*
X114350D01*
X114850D02*
X115350Y208100D01*
X115600Y208600D01*
X115350Y209100D01*
X114850Y209350D01*
X114350D01*
X113850Y209100D01*
X108350Y229100D02*
X108850Y228850D01*
X109350D01*
X109850Y229100D01*
X110100Y229600D01*
X109850Y230100D01*
X109350Y230350D01*
X108850D01*
X109350D02*
X109850Y230600D01*
X110100Y231100D01*
X109850Y231600D01*
X109350Y231850D01*
X108850D01*
X108350Y231600D01*
X115600Y266600D02*
X116100Y266350D01*
X116850D01*
X117350Y266600D01*
X117600Y267100D01*
Y267350D01*
X117350Y267850D01*
X116850Y268100D01*
X115600D01*
Y269350D01*
X117600D01*
X119600D02*
X120850Y266350D01*
X122100Y269350D01*
X128350Y266350D02*
X129350D01*
X128850D02*
Y269350D01*
X128350D02*
X129350D01*
X131600Y266350D02*
Y269350D01*
X134100Y266350D01*
Y269350D01*
X120600Y229350D02*
Y226350D01*
X123100D01*
X124600D02*
Y229350D01*
X125850Y227850D01*
X127100Y229350D01*
Y226350D01*
X129100D02*
X130100D01*
X129600D02*
Y229350D01*
X129100Y228850D01*
X133100Y226350D02*
X134100D01*
X133600D02*
Y229350D01*
X133100Y228850D01*
X137100Y226350D02*
X138100D01*
X137600D02*
Y229350D01*
X137100Y228850D01*
X140600Y226350D02*
X142600Y229350D01*
X140600D01*
X133600Y178850D02*
X134600D01*
X134100D02*
Y181850D01*
X133600Y181350D01*
X195600Y179600D02*
X195850Y180100D01*
X196350Y180350D01*
X196850D01*
X197350Y180100D01*
X197600Y179600D01*
X197350Y179100D01*
X196850Y178850D01*
X196350D01*
X195850Y179100D01*
X195600Y179600D01*
Y180350D01*
X195850Y181100D01*
X196350Y181600D01*
X196850Y181850D01*
D02*
D21*
X28100Y166444D02*
Y169819D01*
X30069D01*
X30631Y169537D01*
X30913Y168975D01*
X30631Y168413D01*
X30069Y168131D01*
X28100D01*
X30069D02*
X30913Y166444D01*
X32600D02*
Y169819D01*
X35413D01*
X34850Y168131D02*
X32600D01*
Y166444D02*
X35413D01*
X37100Y167287D02*
X37381Y166725D01*
X37944Y166444D01*
X39069D01*
X39631Y166725D01*
X39913Y167287D01*
X39631Y167850D01*
X39069Y168131D01*
X37944D01*
X37381Y168413D01*
X37100Y168975D01*
X37381Y169537D01*
X37944Y169819D01*
X39069D01*
X39631Y169537D01*
X39913Y168975D01*
X41600Y166444D02*
Y169819D01*
X44413D01*
X43850Y168131D02*
X41600D01*
Y166444D02*
X44413D01*
X47506D02*
Y169819D01*
X46100D02*
X48913D01*
X78100Y166444D02*
Y169819D01*
X80913D01*
X80350Y168131D02*
X78100D01*
X82600Y169819D02*
Y166444D01*
X85413D01*
X87100D02*
X88506Y169819D01*
X89913Y166444D01*
X87663Y167850D02*
X89350D01*
X91600Y167287D02*
X91881Y166725D01*
X92444Y166444D01*
X93569D01*
X94131Y166725D01*
X94413Y167287D01*
X94131Y167850D01*
X93569Y168131D01*
X92444D01*
X91881Y168413D01*
X91600Y168975D01*
X91881Y169537D01*
X92444Y169819D01*
X93569D01*
X94131Y169537D01*
X94413Y168975D01*
X96100Y166444D02*
Y169819D01*
Y168131D02*
X98913D01*
Y166444D02*
Y169819D01*
X113756Y46256D02*
X114631D01*
X114194D02*
Y48881D01*
X113756D02*
X114631D01*
X116600Y47131D02*
Y48006D01*
X116819Y48444D01*
X117037Y48663D01*
X117475Y48881D01*
X117913D01*
X118350Y48663D01*
X118569Y48444D01*
X118787Y48006D01*
Y47131D01*
X118569Y46694D01*
X118350Y46475D01*
X117913Y46256D01*
X117475D01*
X117037Y46475D01*
X116819Y46694D01*
X116600Y47131D01*
X120319Y46475D02*
X120756Y46256D01*
X121194D01*
X121631Y46475D01*
X121850Y46913D01*
Y48225D01*
X121631Y48663D01*
X121194Y48881D01*
X120756D01*
X120319Y48663D01*
X120100Y48225D01*
Y46913D01*
X120319Y46475D01*
X121631Y48663D01*
X125350Y46256D02*
X123600D01*
X125131Y47787D01*
X125350Y48225D01*
X125131Y48663D01*
X124694Y48881D01*
X124037D01*
X123600Y48663D01*
D02*
D28*
X69475Y119100D02*
X69756Y119663D01*
Y120506D01*
X69475Y121069D01*
X68913Y121350D01*
X68631D01*
X68069Y121069D01*
X67787Y120506D01*
Y119100D01*
X66381D01*
Y121350D01*
Y123600D02*
X69756Y125006D01*
X66381Y126413D01*
D02*
D74*
X26694Y149506D02*
X27006Y149350D01*
X27163Y149037D01*
X27006Y148725D01*
X26694Y148569D01*
X25600D01*
Y150444D01*
X26694D01*
X27006Y150287D01*
X27163Y149975D01*
X27006Y149663D01*
X26694Y149506D01*
X25600D01*
X28100Y150444D02*
Y149037D01*
X28256Y148725D01*
X28569Y148569D01*
X29194D01*
X29506Y148725D01*
X29663Y149037D01*
Y150444D01*
X31381Y148569D02*
Y150444D01*
X30600D02*
X32163D01*
X33881Y148569D02*
Y150444D01*
X33100D02*
X34663D01*
X35600Y149194D02*
Y149819D01*
X35756Y150131D01*
X35913Y150287D01*
X36225Y150444D01*
X36537D01*
X36850Y150287D01*
X37006Y150131D01*
X37163Y149819D01*
Y149194D01*
X37006Y148881D01*
X36850Y148725D01*
X36537Y148569D01*
X36225D01*
X35913Y148725D01*
X35756Y148881D01*
X35600Y149194D01*
X38100Y148569D02*
Y150444D01*
X39663Y148569D01*
Y150444D01*
X73881Y148569D02*
Y150444D01*
X73100D02*
X74663D01*
X75600Y149194D02*
Y149819D01*
X75756Y150131D01*
X75913Y150287D01*
X76225Y150444D01*
X76537D01*
X76850Y150287D01*
X77006Y150131D01*
X77163Y149819D01*
Y149194D01*
X77006Y148881D01*
X76850Y148725D01*
X76537Y148569D01*
X76225D01*
X75913Y148725D01*
X75756Y148881D01*
X75600Y149194D01*
X79194Y149350D02*
X79663D01*
Y149194D01*
X79506Y148881D01*
X79350Y148725D01*
X79037Y148569D01*
X78725D01*
X78413Y148725D01*
X78256Y148881D01*
X78100Y149194D01*
Y149819D01*
X78256Y150131D01*
X78413Y150287D01*
X78725Y150444D01*
X79037D01*
X79350Y150287D01*
X79506Y150131D01*
X79663Y149819D01*
X81694Y149350D02*
X82163D01*
Y149194D01*
X82006Y148881D01*
X81850Y148725D01*
X81537Y148569D01*
X81225D01*
X80913Y148725D01*
X80756Y148881D01*
X80600Y149194D01*
Y149819D01*
X80756Y150131D01*
X80913Y150287D01*
X81225Y150444D01*
X81537D01*
X81850Y150287D01*
X82006Y150131D01*
X82163Y149819D01*
X83100Y150444D02*
Y148569D01*
X84663D01*
X85600D02*
Y150444D01*
X87163D01*
X86850Y149506D02*
X85600D01*
Y148569D02*
X87163D01*
X90600Y149037D02*
X90756Y148725D01*
X91069Y148569D01*
X91694D01*
X92006Y148725D01*
X92163Y149037D01*
X92006Y149350D01*
X91694Y149506D01*
X91069D01*
X90756Y149663D01*
X90600Y149975D01*
X90756Y150287D01*
X91069Y150444D01*
X91694D01*
X92006Y150287D01*
X92163Y149975D01*
X93100Y150444D02*
X93256Y148569D01*
X93881Y149506D01*
X94506Y148569D01*
X94663Y150444D01*
X0Y0D02*
M02*
