G04 DesignSpark PCB Gerber Version 10.0 Build 5299*
G04 #@! TF.Part,Single*
G04 #@! TF.FilePolarity,Positive*
%FSLAX35Y35*%
%MOIN*%
G04 #@! TA.AperFunction,ViaDrill*
%ADD22C,0.02400*%
G04 #@! TA.AperFunction,MechanicalDrill*
%ADD23C,0.03500*%
G04 #@! TA.AperFunction,ViaDrill*
%ADD72C,0.05000*%
G04 #@! TD.AperFunction*
X0Y0D02*
D02*
D22*
X50600Y130600D03*
X63100Y148100D03*
X100600Y113100D03*
X120600Y138100D03*
X150600D03*
X160600Y88100D03*
Y130600D03*
X190600Y20600D03*
Y158100D03*
D02*
D23*
X30600D03*
Y178100D03*
X33100Y23100D03*
Y73100D03*
X43100Y23100D03*
Y73100D03*
X50600Y158100D03*
Y178100D03*
X53100Y23100D03*
Y73100D03*
Y100600D03*
X63100Y23100D03*
Y73100D03*
Y100600D03*
X73100Y23100D03*
Y73100D03*
Y100600D03*
X80600Y158100D03*
Y178100D03*
X83100Y23100D03*
Y73100D03*
X90600Y158100D03*
Y178100D03*
Y198100D03*
Y235600D03*
Y268100D03*
X100600Y158100D03*
Y178100D03*
Y235600D03*
X110600D03*
Y268100D03*
X120600Y218100D03*
X140600Y178100D03*
X150600Y98100D03*
Y108100D03*
Y178100D03*
X160600Y98100D03*
Y108100D03*
Y178100D03*
X170600Y98100D03*
Y108100D03*
Y178100D03*
X180600Y98100D03*
Y108100D03*
Y178100D03*
X190600D03*
D02*
D72*
X8100Y270600D03*
X10600Y8100D03*
X200600Y270600D03*
X203100Y8100D03*
X0Y0D02*
M02*
