G05
M48
INCH,TZ
FMAT,2
T1C000.02400
T2C000.03500
T3C000.05000
%
T001
X0.50600Y1.30600
X0.63100Y1.48100
X1.00600Y1.13100
X1.20600Y1.38100
X1.50600Y1.38100
X1.60600Y0.88100
X1.60600Y1.30600
X1.90600Y0.20600
X1.90600Y1.58100
T002
X0.30600Y1.58100
X0.30600Y1.78100
X0.33100Y0.23100
X0.33100Y0.73100
X0.43100Y0.23100
X0.43100Y0.73100
X0.50600Y1.58100
X0.50600Y1.78100
X0.53100Y0.23100
X0.53100Y0.73100
X0.53100Y1.00600
X0.63100Y0.23100
X0.63100Y0.73100
X0.63100Y1.00600
X0.73100Y0.23100
X0.73100Y0.73100
X0.73100Y1.00600
X0.80600Y1.58100
X0.80600Y1.78100
X0.83100Y0.23100
X0.83100Y0.73100
X0.90600Y1.58100
X0.90600Y1.78100
X0.90600Y1.98100
X0.90600Y2.35600
X0.90600Y2.68100
X1.00600Y1.58100
X1.00600Y1.78100
X1.00600Y2.35600
X1.10600Y2.35600
X1.10600Y2.68100
X1.20600Y2.18100
X1.40600Y1.78100
X1.50600Y0.98100
X1.50600Y1.08100
X1.50600Y1.78100
X1.60600Y0.98100
X1.60600Y1.08100
X1.60600Y1.78100
X1.70600Y0.98100
X1.70600Y1.08100
X1.70600Y1.78100
X1.80600Y0.98100
X1.80600Y1.08100
X1.80600Y1.78100
X1.90600Y1.78100
T003
X0.08100Y2.70600
X0.10600Y0.08100
X2.00600Y2.70600
X2.03100Y0.08100
M30
