G04 DesignSpark PCB Gerber Version 10.0 Build 5299*
G04 #@! TF.Part,Single*
G04 #@! TF.FileFunction,Soldermask,Top*
G04 #@! TF.FilePolarity,Negative*
%FSLAX35Y35*%
%MOIN*%
G04 #@! TA.AperFunction,WasherPad*
%ADD17R,0.06600X0.06600*%
G04 #@! TD.AperFunction*
%ADD19C,0.00500*%
G04 #@! TA.AperFunction,ViaPad*
%ADD15C,0.05400*%
%ADD16C,0.06200*%
%ADD27C,0.06600*%
G04 #@! TD.AperFunction*
X0Y0D02*
D02*
D15*
X50600Y130600D03*
X120600Y138100D03*
X150600D03*
X160600Y130600D03*
X190600Y20600D03*
Y158100D03*
D02*
D16*
X63100Y148100D03*
X100600Y113100D03*
X160600Y88100D03*
D02*
D17*
X30600Y158100D03*
Y178100D03*
X33100Y23100D03*
Y73100D03*
X43100Y23100D03*
Y73100D03*
X50600Y158100D03*
Y178100D03*
X53100Y23100D03*
Y73100D03*
Y100600D03*
X63100Y23100D03*
Y73100D03*
Y100600D03*
X73100Y23100D03*
Y73100D03*
Y100600D03*
X80600Y158100D03*
Y178100D03*
X83100Y23100D03*
Y73100D03*
X90600Y158100D03*
Y178100D03*
Y198100D03*
Y235600D03*
Y268100D03*
X100600Y158100D03*
Y178100D03*
Y235600D03*
X110600D03*
Y268100D03*
X120600Y218100D03*
X140600Y178100D03*
X150600Y98100D03*
Y108100D03*
Y178100D03*
X160600Y98100D03*
Y108100D03*
Y178100D03*
X170600Y98100D03*
Y108100D03*
Y178100D03*
X180600Y98100D03*
Y108100D03*
Y178100D03*
X190600D03*
D02*
D19*
X50600Y163100D02*
G75*
G03*
Y153100I0J-5000D01*
G01*
G75*
G03*
Y163100I0J5000D01*
G01*
G36*
X50600Y163100D02*
G75*
G03*
Y153100I0J-5000D01*
G01*
G75*
G03*
Y163100I0J5000D01*
G01*
G37*
Y183100D02*
G75*
G03*
Y173100I0J-5000D01*
G01*
G75*
G03*
Y183100I0J5000D01*
G01*
G36*
X50600Y183100D02*
G75*
G03*
Y173100I0J-5000D01*
G01*
G75*
G03*
Y183100I0J5000D01*
G01*
G37*
X90600D02*
G75*
G03*
Y173100I0J-5000D01*
G01*
G75*
G03*
Y183100I0J5000D01*
G01*
G36*
X90600Y183100D02*
G75*
G03*
Y173100I0J-5000D01*
G01*
G75*
G03*
Y183100I0J5000D01*
G01*
G37*
X100600Y163100D02*
G75*
G03*
Y153100I0J-5000D01*
G01*
G75*
G03*
Y163100I0J5000D01*
G01*
G36*
X100600Y163100D02*
G75*
G03*
Y153100I0J-5000D01*
G01*
G75*
G03*
Y163100I0J5000D01*
G01*
G37*
D02*
D27*
X8100Y270600D03*
X10600Y8100D03*
X200600Y270600D03*
X203100Y8100D03*
X0Y0D02*
M02*
