G05
M48
INCH,TZ
FMAT,2
T1C000.03200
T2C000.03500
%
T001
X2.75250Y1.27750
T002
X0.32750Y0.52750
X0.32750Y1.42750
X0.42750Y0.52750
X0.42750Y1.42750
X0.52750Y0.52750
X0.52750Y1.42750
X0.62750Y0.52750
X0.62750Y1.42750
X0.72750Y0.52750
X0.72750Y1.42750
X0.82750Y0.52750
X0.82750Y1.42750
X0.92750Y0.52750
X0.92750Y1.42750
X1.02750Y0.52750
X1.02750Y1.42750
X1.12750Y0.52750
X1.12750Y1.42750
X1.22750Y0.52750
X1.22750Y1.42750
X1.32750Y0.52750
X1.32750Y1.42750
X1.42750Y0.52750
X1.42750Y1.42750
X1.52750Y0.52750
X1.52750Y1.42750
X1.62750Y0.52750
X1.62750Y1.42750
X1.72750Y0.52750
X1.72750Y1.42750
X1.82750Y0.52750
X1.82750Y1.42750
X1.92750Y0.52750
X1.92750Y1.42750
X2.02750Y0.52750
X2.02750Y1.42750
X2.12750Y0.52750
X2.12750Y1.42750
X2.55250Y0.42750
X2.55250Y0.52750
X2.65250Y0.42750
X2.65250Y0.52750
X2.75250Y0.42750
X2.75250Y0.52750
X2.92750Y0.82750
X2.92750Y0.92750
X2.92750Y1.02750
X2.92750Y1.22750
X2.92750Y1.32750
X2.92750Y1.42750
X2.92750Y1.52750
M30
