G04 DesignSpark PCB Gerber Version 10.0 Build 5299*
G04 #@! TF.Part,Single*
G04 #@! TF.FileFunction,Copper,L2,Bot*
G04 #@! TF.FilePolarity,Positive*
%FSLAX35Y35*%
%MOIN*%
G04 #@! TA.AperFunction,WasherPad*
%ADD14R,0.06000X0.06000*%
G04 #@! TD.AperFunction*
%ADD10C,0.01500*%
%ADD75C,0.05000*%
G04 #@! TA.AperFunction,ViaPad*
%ADD12C,0.05600*%
G04 #@! TD.AperFunction*
X0Y0D02*
D02*
D10*
X92750Y52750D02*
Y62750D01*
X130250Y100250D01*
X242750D01*
X250250Y107750D01*
Y147750D01*
X255250Y152750D01*
X292750D01*
X112750Y52750D02*
Y65250D01*
X137750Y90250D01*
X245250D01*
X260250Y105250D01*
Y142750D01*
X292750D01*
D02*
D12*
X275250Y127750D03*
D02*
D14*
X32750Y52750D03*
Y142750D03*
X42750Y52750D03*
Y142750D03*
X52750Y52750D03*
Y142750D03*
X62750Y52750D03*
Y142750D03*
X72750Y52750D03*
Y142750D03*
X82750Y52750D03*
Y142750D03*
X92750Y52750D03*
Y142750D03*
X102750Y52750D03*
Y142750D03*
X112750Y52750D03*
Y142750D03*
X122750Y52750D03*
Y142750D03*
X132750Y52750D03*
Y142750D03*
X142750Y52750D03*
Y142750D03*
X152750Y52750D03*
Y142750D03*
X162750Y52750D03*
Y142750D03*
X172750Y52750D03*
Y142750D03*
X182750Y52750D03*
Y142750D03*
X192750Y52750D03*
Y142750D03*
X202750Y52750D03*
Y142750D03*
X212750Y52750D03*
Y142750D03*
X255250Y42750D03*
Y52750D03*
X265250Y42750D03*
Y52750D03*
X275250Y42750D03*
Y52750D03*
X292750Y82750D03*
Y92750D03*
Y102750D03*
Y122750D03*
Y132750D03*
Y142750D03*
Y152750D03*
D02*
D75*
X212750Y52750D02*
X255250D01*
X292750Y82750D02*
Y92750D01*
Y102750D02*
X275250D01*
X265250Y92750D01*
Y52750D01*
X292750Y122750D02*
Y102750D01*
Y132750D02*
X280250D01*
X275250Y127750D01*
X0Y0D02*
M02*
