G04 DesignSpark PCB Gerber Version 10.0 Build 5299*
G04 #@! TF.Part,Single*
G04 #@! TF.FileFunction,Drillmap*
G04 #@! TF.FilePolarity,Positive*
%FSLAX35Y35*%
%MOIN*%
%ADD19C,0.00500*%
G04 #@! TA.AperFunction,ViaPad*
%ADD24C,0.10000*%
G04 #@! TD.AperFunction*
X0Y0D02*
D02*
D19*
X44937Y60563D02*
X45563Y60250D01*
X45875Y59625D01*
X45563Y59000D01*
X44937Y58687D01*
X42750D01*
Y62437D01*
X44937D01*
X45563Y62125D01*
X45875Y61500D01*
X45563Y60875D01*
X44937Y60563D01*
X42750D01*
X44937Y150563D02*
X45563Y150250D01*
X45875Y149625D01*
X45563Y149000D01*
X44937Y148687D01*
X42750D01*
Y152437D01*
X44937D01*
X45563Y152125D01*
X45875Y151500D01*
X45563Y150875D01*
X44937Y150563D01*
X42750D01*
X54937Y60563D02*
X55563Y60250D01*
X55875Y59625D01*
X55563Y59000D01*
X54937Y58687D01*
X52750D01*
Y62437D01*
X54937D01*
X55563Y62125D01*
X55875Y61500D01*
X55563Y60875D01*
X54937Y60563D01*
X52750D01*
X54937Y150563D02*
X55563Y150250D01*
X55875Y149625D01*
X55563Y149000D01*
X54937Y148687D01*
X52750D01*
Y152437D01*
X54937D01*
X55563Y152125D01*
X55875Y151500D01*
X55563Y150875D01*
X54937Y150563D01*
X52750D01*
X64937Y60563D02*
X65563Y60250D01*
X65875Y59625D01*
X65563Y59000D01*
X64937Y58687D01*
X62750D01*
Y62437D01*
X64937D01*
X65563Y62125D01*
X65875Y61500D01*
X65563Y60875D01*
X64937Y60563D01*
X62750D01*
X64937Y150563D02*
X65563Y150250D01*
X65875Y149625D01*
X65563Y149000D01*
X64937Y148687D01*
X62750D01*
Y152437D01*
X64937D01*
X65563Y152125D01*
X65875Y151500D01*
X65563Y150875D01*
X64937Y150563D01*
X62750D01*
X74937Y60563D02*
X75563Y60250D01*
X75875Y59625D01*
X75563Y59000D01*
X74937Y58687D01*
X72750D01*
Y62437D01*
X74937D01*
X75563Y62125D01*
X75875Y61500D01*
X75563Y60875D01*
X74937Y60563D01*
X72750D01*
X74937Y150563D02*
X75563Y150250D01*
X75875Y149625D01*
X75563Y149000D01*
X74937Y148687D01*
X72750D01*
Y152437D01*
X74937D01*
X75563Y152125D01*
X75875Y151500D01*
X75563Y150875D01*
X74937Y150563D01*
X72750D01*
X84937Y60563D02*
X85563Y60250D01*
X85875Y59625D01*
X85563Y59000D01*
X84937Y58687D01*
X82750D01*
Y62437D01*
X84937D01*
X85563Y62125D01*
X85875Y61500D01*
X85563Y60875D01*
X84937Y60563D01*
X82750D01*
X84937Y150563D02*
X85563Y150250D01*
X85875Y149625D01*
X85563Y149000D01*
X84937Y148687D01*
X82750D01*
Y152437D01*
X84937D01*
X85563Y152125D01*
X85875Y151500D01*
X85563Y150875D01*
X84937Y150563D01*
X82750D01*
X94937Y60563D02*
X95563Y60250D01*
X95875Y59625D01*
X95563Y59000D01*
X94937Y58687D01*
X92750D01*
Y62437D01*
X94937D01*
X95563Y62125D01*
X95875Y61500D01*
X95563Y60875D01*
X94937Y60563D01*
X92750D01*
X94937Y150563D02*
X95563Y150250D01*
X95875Y149625D01*
X95563Y149000D01*
X94937Y148687D01*
X92750D01*
Y152437D01*
X94937D01*
X95563Y152125D01*
X95875Y151500D01*
X95563Y150875D01*
X94937Y150563D01*
X92750D01*
X104937Y60563D02*
X105563Y60250D01*
X105875Y59625D01*
X105563Y59000D01*
X104937Y58687D01*
X102750D01*
Y62437D01*
X104937D01*
X105563Y62125D01*
X105875Y61500D01*
X105563Y60875D01*
X104937Y60563D01*
X102750D01*
X104937Y150563D02*
X105563Y150250D01*
X105875Y149625D01*
X105563Y149000D01*
X104937Y148687D01*
X102750D01*
Y152437D01*
X104937D01*
X105563Y152125D01*
X105875Y151500D01*
X105563Y150875D01*
X104937Y150563D01*
X102750D01*
X114937Y60563D02*
X115563Y60250D01*
X115875Y59625D01*
X115563Y59000D01*
X114937Y58687D01*
X112750D01*
Y62437D01*
X114937D01*
X115563Y62125D01*
X115875Y61500D01*
X115563Y60875D01*
X114937Y60563D01*
X112750D01*
X114937Y150563D02*
X115563Y150250D01*
X115875Y149625D01*
X115563Y149000D01*
X114937Y148687D01*
X112750D01*
Y152437D01*
X114937D01*
X115563Y152125D01*
X115875Y151500D01*
X115563Y150875D01*
X114937Y150563D01*
X112750D01*
X124937Y60563D02*
X125563Y60250D01*
X125875Y59625D01*
X125563Y59000D01*
X124937Y58687D01*
X122750D01*
Y62437D01*
X124937D01*
X125563Y62125D01*
X125875Y61500D01*
X125563Y60875D01*
X124937Y60563D01*
X122750D01*
X124937Y150563D02*
X125563Y150250D01*
X125875Y149625D01*
X125563Y149000D01*
X124937Y148687D01*
X122750D01*
Y152437D01*
X124937D01*
X125563Y152125D01*
X125875Y151500D01*
X125563Y150875D01*
X124937Y150563D01*
X122750D01*
X134937Y60563D02*
X135563Y60250D01*
X135875Y59625D01*
X135563Y59000D01*
X134937Y58687D01*
X132750D01*
Y62437D01*
X134937D01*
X135563Y62125D01*
X135875Y61500D01*
X135563Y60875D01*
X134937Y60563D01*
X132750D01*
X134937Y150563D02*
X135563Y150250D01*
X135875Y149625D01*
X135563Y149000D01*
X134937Y148687D01*
X132750D01*
Y152437D01*
X134937D01*
X135563Y152125D01*
X135875Y151500D01*
X135563Y150875D01*
X134937Y150563D01*
X132750D01*
X144937Y60563D02*
X145563Y60250D01*
X145875Y59625D01*
X145563Y59000D01*
X144937Y58687D01*
X142750D01*
Y62437D01*
X144937D01*
X145563Y62125D01*
X145875Y61500D01*
X145563Y60875D01*
X144937Y60563D01*
X142750D01*
X144937Y150563D02*
X145563Y150250D01*
X145875Y149625D01*
X145563Y149000D01*
X144937Y148687D01*
X142750D01*
Y152437D01*
X144937D01*
X145563Y152125D01*
X145875Y151500D01*
X145563Y150875D01*
X144937Y150563D01*
X142750D01*
X154937Y60563D02*
X155563Y60250D01*
X155875Y59625D01*
X155563Y59000D01*
X154937Y58687D01*
X152750D01*
Y62437D01*
X154937D01*
X155563Y62125D01*
X155875Y61500D01*
X155563Y60875D01*
X154937Y60563D01*
X152750D01*
X154937Y150563D02*
X155563Y150250D01*
X155875Y149625D01*
X155563Y149000D01*
X154937Y148687D01*
X152750D01*
Y152437D01*
X154937D01*
X155563Y152125D01*
X155875Y151500D01*
X155563Y150875D01*
X154937Y150563D01*
X152750D01*
X164937Y60563D02*
X165563Y60250D01*
X165875Y59625D01*
X165563Y59000D01*
X164937Y58687D01*
X162750D01*
Y62437D01*
X164937D01*
X165563Y62125D01*
X165875Y61500D01*
X165563Y60875D01*
X164937Y60563D01*
X162750D01*
X164937Y150563D02*
X165563Y150250D01*
X165875Y149625D01*
X165563Y149000D01*
X164937Y148687D01*
X162750D01*
Y152437D01*
X164937D01*
X165563Y152125D01*
X165875Y151500D01*
X165563Y150875D01*
X164937Y150563D01*
X162750D01*
X174937Y60563D02*
X175563Y60250D01*
X175875Y59625D01*
X175563Y59000D01*
X174937Y58687D01*
X172750D01*
Y62437D01*
X174937D01*
X175563Y62125D01*
X175875Y61500D01*
X175563Y60875D01*
X174937Y60563D01*
X172750D01*
X174937Y150563D02*
X175563Y150250D01*
X175875Y149625D01*
X175563Y149000D01*
X174937Y148687D01*
X172750D01*
Y152437D01*
X174937D01*
X175563Y152125D01*
X175875Y151500D01*
X175563Y150875D01*
X174937Y150563D01*
X172750D01*
X184937Y60563D02*
X185563Y60250D01*
X185875Y59625D01*
X185563Y59000D01*
X184937Y58687D01*
X182750D01*
Y62437D01*
X184937D01*
X185563Y62125D01*
X185875Y61500D01*
X185563Y60875D01*
X184937Y60563D01*
X182750D01*
X184937Y150563D02*
X185563Y150250D01*
X185875Y149625D01*
X185563Y149000D01*
X184937Y148687D01*
X182750D01*
Y152437D01*
X184937D01*
X185563Y152125D01*
X185875Y151500D01*
X185563Y150875D01*
X184937Y150563D01*
X182750D01*
X194937Y60563D02*
X195563Y60250D01*
X195875Y59625D01*
X195563Y59000D01*
X194937Y58687D01*
X192750D01*
Y62437D01*
X194937D01*
X195563Y62125D01*
X195875Y61500D01*
X195563Y60875D01*
X194937Y60563D01*
X192750D01*
X194937Y150563D02*
X195563Y150250D01*
X195875Y149625D01*
X195563Y149000D01*
X194937Y148687D01*
X192750D01*
Y152437D01*
X194937D01*
X195563Y152125D01*
X195875Y151500D01*
X195563Y150875D01*
X194937Y150563D01*
X192750D01*
X204937Y60563D02*
X205563Y60250D01*
X205875Y59625D01*
X205563Y59000D01*
X204937Y58687D01*
X202750D01*
Y62437D01*
X204937D01*
X205563Y62125D01*
X205875Y61500D01*
X205563Y60875D01*
X204937Y60563D01*
X202750D01*
X204937Y150563D02*
X205563Y150250D01*
X205875Y149625D01*
X205563Y149000D01*
X204937Y148687D01*
X202750D01*
Y152437D01*
X204937D01*
X205563Y152125D01*
X205875Y151500D01*
X205563Y150875D01*
X204937Y150563D01*
X202750D01*
X214937Y60563D02*
X215563Y60250D01*
X215875Y59625D01*
X215563Y59000D01*
X214937Y58687D01*
X212750D01*
Y62437D01*
X214937D01*
X215563Y62125D01*
X215875Y61500D01*
X215563Y60875D01*
X214937Y60563D01*
X212750D01*
X214937Y150563D02*
X215563Y150250D01*
X215875Y149625D01*
X215563Y149000D01*
X214937Y148687D01*
X212750D01*
Y152437D01*
X214937D01*
X215563Y152125D01*
X215875Y151500D01*
X215563Y150875D01*
X214937Y150563D01*
X212750D01*
X224937Y60563D02*
X225563Y60250D01*
X225875Y59625D01*
X225563Y59000D01*
X224937Y58687D01*
X222750D01*
Y62437D01*
X224937D01*
X225563Y62125D01*
X225875Y61500D01*
X225563Y60875D01*
X224937Y60563D01*
X222750D01*
X224937Y150563D02*
X225563Y150250D01*
X225875Y149625D01*
X225563Y149000D01*
X224937Y148687D01*
X222750D01*
Y152437D01*
X224937D01*
X225563Y152125D01*
X225875Y151500D01*
X225563Y150875D01*
X224937Y150563D01*
X222750D01*
X267437Y50563D02*
X268063Y50250D01*
X268375Y49625D01*
X268063Y49000D01*
X267437Y48687D01*
X265250D01*
Y52437D01*
X267437D01*
X268063Y52125D01*
X268375Y51500D01*
X268063Y50875D01*
X267437Y50563D01*
X265250D01*
X267437Y60563D02*
X268063Y60250D01*
X268375Y59625D01*
X268063Y59000D01*
X267437Y58687D01*
X265250D01*
Y62437D01*
X267437D01*
X268063Y62125D01*
X268375Y61500D01*
X268063Y60875D01*
X267437Y60563D01*
X265250D01*
X277437Y50563D02*
X278063Y50250D01*
X278375Y49625D01*
X278063Y49000D01*
X277437Y48687D01*
X275250D01*
Y52437D01*
X277437D01*
X278063Y52125D01*
X278375Y51500D01*
X278063Y50875D01*
X277437Y50563D01*
X275250D01*
X277437Y60563D02*
X278063Y60250D01*
X278375Y59625D01*
X278063Y59000D01*
X277437Y58687D01*
X275250D01*
Y62437D01*
X277437D01*
X278063Y62125D01*
X278375Y61500D01*
X278063Y60875D01*
X277437Y60563D01*
X275250D01*
X287437Y50563D02*
X288063Y50250D01*
X288375Y49625D01*
X288063Y49000D01*
X287437Y48687D01*
X285250D01*
Y52437D01*
X287437D01*
X288063Y52125D01*
X288375Y51500D01*
X288063Y50875D01*
X287437Y50563D01*
X285250D01*
X287437Y60563D02*
X288063Y60250D01*
X288375Y59625D01*
X288063Y59000D01*
X287437Y58687D01*
X285250D01*
Y62437D01*
X287437D01*
X288063Y62125D01*
X288375Y61500D01*
X288063Y60875D01*
X287437Y60563D01*
X285250D01*
Y133687D02*
Y137437D01*
X288375D01*
X287750Y135563D02*
X285250D01*
Y133687D02*
X288375D01*
X304937Y90563D02*
X305563Y90250D01*
X305875Y89625D01*
X305563Y89000D01*
X304937Y88687D01*
X302750D01*
Y92437D01*
X304937D01*
X305563Y92125D01*
X305875Y91500D01*
X305563Y90875D01*
X304937Y90563D01*
X302750D01*
X304937Y100563D02*
X305563Y100250D01*
X305875Y99625D01*
X305563Y99000D01*
X304937Y98687D01*
X302750D01*
Y102437D01*
X304937D01*
X305563Y102125D01*
X305875Y101500D01*
X305563Y100875D01*
X304937Y100563D01*
X302750D01*
X304937Y110563D02*
X305563Y110250D01*
X305875Y109625D01*
X305563Y109000D01*
X304937Y108687D01*
X302750D01*
Y112437D01*
X304937D01*
X305563Y112125D01*
X305875Y111500D01*
X305563Y110875D01*
X304937Y110563D01*
X302750D01*
X304937Y130563D02*
X305563Y130250D01*
X305875Y129625D01*
X305563Y129000D01*
X304937Y128687D01*
X302750D01*
Y132437D01*
X304937D01*
X305563Y132125D01*
X305875Y131500D01*
X305563Y130875D01*
X304937Y130563D01*
X302750D01*
X304937Y140563D02*
X305563Y140250D01*
X305875Y139625D01*
X305563Y139000D01*
X304937Y138687D01*
X302750D01*
Y142437D01*
X304937D01*
X305563Y142125D01*
X305875Y141500D01*
X305563Y140875D01*
X304937Y140563D01*
X302750D01*
X304937Y150563D02*
X305563Y150250D01*
X305875Y149625D01*
X305563Y149000D01*
X304937Y148687D01*
X302750D01*
Y152437D01*
X304937D01*
X305563Y152125D01*
X305875Y151500D01*
X305563Y150875D01*
X304937Y150563D01*
X302750D01*
X304937Y160563D02*
X305563Y160250D01*
X305875Y159625D01*
X305563Y159000D01*
X304937Y158687D01*
X302750D01*
Y162437D01*
X304937D01*
X305563Y162125D01*
X305875Y161500D01*
X305563Y160875D01*
X304937Y160563D01*
X302750D01*
D02*
D24*
X32750Y52750D03*
Y142750D03*
X42750Y52750D03*
Y142750D03*
X52750Y52750D03*
Y142750D03*
X62750Y52750D03*
Y142750D03*
X72750Y52750D03*
Y142750D03*
X82750Y52750D03*
Y142750D03*
X92750Y52750D03*
Y142750D03*
X102750Y52750D03*
Y142750D03*
X112750Y52750D03*
Y142750D03*
X122750Y52750D03*
Y142750D03*
X132750Y52750D03*
Y142750D03*
X142750Y52750D03*
Y142750D03*
X152750Y52750D03*
Y142750D03*
X162750Y52750D03*
Y142750D03*
X172750Y52750D03*
Y142750D03*
X182750Y52750D03*
Y142750D03*
X192750Y52750D03*
Y142750D03*
X202750Y52750D03*
Y142750D03*
X212750Y52750D03*
Y142750D03*
X255250Y42750D03*
Y52750D03*
X265250Y42750D03*
Y52750D03*
X275250Y42750D03*
Y52750D03*
Y127750D03*
X292750Y82750D03*
Y92750D03*
Y102750D03*
Y122750D03*
Y132750D03*
Y142750D03*
Y152750D03*
X0Y0D02*
M02*
